# xmcd CD database file
#
# Track frame offsets:
#	150
#	14560
#	39747
#	62942
#	80716
#	93216
#	110351
#	129865
#	143657
#	159003
#	171653
#	190337
#	206008
#	221950
#	237485
#	249262
#
# Disc length: 3530 seconds
#
# Revision: 4
# Processed by: cddbd v1.5.2PL0 Copyright (c) Steve Scherf et al.
# Submitted via: CDex 1.70beta2
#
DISCID=e50dc810
DTITLE=Chorico - Life in the 21st century
DYEAR=2008
DGENRE=Jazz
TTITLE0=A dona Chora
TTITLE1=Luiz Americano na P.R.E 3
TTITLE2=Assanhado
TTITLE3=Urubata
TTITLE4=Labirinto
TTITLE5=Life in the 21st century
TTITLE6=So Voce
TTITLE7=Belmiro
TTITLE8=Manchucando
TTITLE9=O Gago
TTITLE10=Bluesao
TTITLE11=Goiabeira
TTITLE12=Sir Sasha
TTITLE13=Stella
TTITLE14=Carrossel
TTITLE15=Brejeiro
EXTD=YEAR: 2008
EXTT0=
EXTT1=
EXTT2=
EXTT3=
EXTT4=
EXTT5=
EXTT6=
EXTT7=
EXTT8=
EXTT9=
EXTT10=
EXTT11=
EXTT12=
EXTT13=
EXTT14=
EXTT15=
PLAYORDER=
